<svg viewBox="0 0 1280 640" width="1280" height="640" xmlns="http://www.w3.org/2000/svg">
   <path d="m287.06 64.111c-3.462 0-6.8223 1.2439-10.076 3.7363l-193.17 155.99c-5.3312 4.3619-7.998 10.456-7.998 18.279v155.99c0 7.8237 2.6669 13.917 7.998 18.279l193.17 155.99c3.2539 2.4924 6.6149 3.7383 10.076 3.7383 3.462 0 6.8543-1.2459 10.178-3.7383l193.17-155.99c5.3317-4.3619 7.9961-10.456 7.9961-18.279v-155.99c0-7.8236-2.6644-13.917-7.9961-18.279l-193.17-155.99c-3.3234-2.4925-6.7157-3.7363-10.178-3.7363zm-18.174 63.248v102.5l-78.721 63.77-63.455-51.408 142.18-114.86zm36.348 0 142.17 114.86-63.455 51.408-78.723-63.768 0.00586-102.5zm630.96 59.137v262.5h57.801v-262.5h-57.801zm-295.3 13.699v170.7c0 11.133-2.2652 19.835-6.7988 26.102-4.4666 6.2-10.868 9.3008-19.201 9.3008-9.1998 0-15.799-2.5639-19.799-7.6973-3.8665-5.1332-5.8008-13.403-5.8008-24.803h-60.1c0 25.066 7.4996 44.433 22.5 58.1 15.066 13.667 36.133 20.5 63.199 20.5 16.2 0 30.867-3.3993 44-10.199 13.2-6.8666 23.435-16.5 30.701-28.9 7.4001-12.4 11.098-26.535 11.098-42.402v-170.7h-59.799zm471.9 60.502c-18.467 0-34.402 3.9673-47.801 11.9-13.467 7.8666-23.732 19.036-30.799 33.502-6.933 14.466-10.4 31.164-10.4 50.098v4.7988c0 27.134 8.7699 49.166 26.303 66.1 17.533 16.866 40.498 25.301 68.898 25.301 15.133 0 29.233-2.8992 42.299-8.6992 13.267-5.9333 23.467-13.868 30.6-23.801l-26.299-31.098c-10.266 12.8-24.5 19.201-42.699 19.201-11.067 0-20.068-2.9686-27.002-8.9023-6.933-5.9333-11.431-14.069-13.498-24.402h114.5v-22.398c0-28.866-7.535-51.336-22.602-67.402-15-16.133-35.5-24.197-61.5-24.197zm-377.9 3.4023v119.79c0 22.067 5.1991 39.034 15.6 50.9 10.467 11.733 25.833 17.598 46.1 17.598 20.734 0 37.201-7.7961 49.4-23.396l1.6992 20h54v-184.9h-57.9v129.7c-5.6001 9.4665-15 14.201-28.199 14.201-15.4 0-23.1-7.9346-23.1-23.801v-120.1l-57.6-0.00195zm-622.73 19.143 45.49 36.867-45.49 36.762v-73.629zm349.88 0.10547v73.732l-45.49-36.865 45.49-36.867zm650.45 21.75c9.0666 0 16.066 2.5638 21 7.6973 4.8665 4.9997 7.2002 12.134 7 21.4v4.4024h-58.1c3.2001-22.333 13.233-33.5 30.1-33.5zm-922.37 41.494 78.824 63.766v102.51l-142.28-114.86 63.455-51.408zm193.89 0.10156 63.453 51.408-142.28 114.86v-102.51l78.826-63.766z" fill="#5f7389"/>
</svg>
